<svg width="391" height="351" viewBox="0 0 391 351" fill="none" xmlns="http://www.w3.org/2000/svg">
<path fill-rule="evenodd" clip-rule="evenodd" d="M174.238 135.66C174.928 133.795 177.409 133.024 179.24 133.802C181.07 134.579 182.207 136.524 182.494 138.492C182.781 140.461 182.345 142.461 181.785 144.369C181.274 146.11 180.658 147.819 179.94 149.485C179.873 149.64 179.783 149.813 179.619 149.85C179.444 149.889 179.282 149.753 179.156 149.625C176.045 146.474 174.17 142.133 174.007 137.707C173.982 137.017 173.999 136.309 174.238 135.66ZM179.616 136.116C179.106 135.679 178.446 135.392 177.775 135.412C176.206 135.46 175.111 137.171 175.146 138.74C175.181 140.31 176.017 141.734 176.828 143.078C177.409 144.04 177.99 145.002 178.571 145.965C178.769 146.292 179.159 146.667 179.467 146.439C179.591 146.348 179.64 146.187 179.68 146.038C179.918 145.164 180.156 144.29 180.394 143.416C180.734 142.166 181.077 140.896 181.055 139.601C181.034 138.306 180.599 136.959 179.616 136.116Z" fill="black"/>
<path fill-rule="evenodd" clip-rule="evenodd" d="M178.59 141.139C178.208 141.247 177.79 141.227 177.42 141.082C176.703 140.803 176.207 140.033 176.248 139.264C176.29 138.494 176.866 137.783 177.61 137.583C178.737 137.279 180.006 138.317 179.931 139.482C179.882 140.238 179.319 140.934 178.59 141.139Z" fill="black"/>
<path fill-rule="evenodd" clip-rule="evenodd" d="M199.13 324.041C200.417 324.21 199.942 326.208 199.107 327.202C191.132 336.696 180.719 344.126 169.146 348.579C166.551 349.577 163.867 350.436 161.093 350.626C155.948 350.981 150.824 348.972 146.755 345.803C142.687 342.634 139.587 338.375 137.061 333.879C130.153 321.586 127.256 307.079 128.914 293.075C129.071 291.757 129.969 290.009 131.184 290.544C130.832 295.226 130.777 299.931 131.02 304.619C131.259 309.225 131.791 313.843 133.113 318.261C134.338 322.351 136.222 326.21 138.186 330.002C140.205 333.898 142.345 337.784 145.26 341.064C148.176 344.345 151.96 347.011 156.266 347.861C161.664 348.927 167.204 347.068 172.18 344.721C182.501 339.856 191.759 332.751 199.13 324.041Z" fill="black"/>
<path fill-rule="evenodd" clip-rule="evenodd" d="M236.47 270.681C245.843 261.459 255.216 252.238 264.589 243.016C265.114 242.499 265.89 241.948 266.511 242.344C267.339 242.873 266.677 244.143 265.979 244.834C255.891 254.811 245.802 264.788 235.714 274.765C234.987 274.396 234.776 273.402 235.032 272.628C235.288 271.854 235.889 271.252 236.47 270.681Z" fill="black"/>
<path fill-rule="evenodd" clip-rule="evenodd" d="M164.715 217.644C164.144 217.743 163.572 217.842 163.001 217.941C161.891 216.276 160.756 214.549 160.409 212.58C160.06 210.61 160.712 208.317 162.46 207.346C164.438 206.246 165.035 203.542 164.405 201.369C163.774 199.195 162.213 197.433 160.684 195.766C159.131 194.071 156.64 192.272 154.796 193.644C153.594 194.539 151.795 194.033 150.72 192.99C149.644 191.947 149.075 190.506 148.379 189.179C147.063 186.668 145.144 184.403 142.633 183.087C140.122 181.771 136.98 181.51 134.453 182.794C131.946 184.069 130.364 186.604 128.228 188.433C126.091 190.261 122.562 191.232 120.637 189.182C120.147 188.661 119.819 187.888 120.097 187.229C120.375 186.571 121.455 186.344 121.801 186.97C122.679 188.567 125.108 188.544 126.626 187.537C128.145 186.529 129.096 184.883 130.341 183.553C132.778 180.952 136.483 179.598 140.023 180.014C143.563 180.43 146.852 182.605 148.62 185.701C149.472 187.192 149.997 188.888 151.109 190.197C152.221 191.506 154.242 192.308 155.669 191.351C157.28 190.271 159.382 191.613 160.796 192.942C162.71 194.739 164.575 196.682 165.653 199.076C166.731 201.469 166.901 204.415 165.493 206.631C164.321 208.475 162.077 209.969 162.272 212.146C162.453 214.176 164.788 215.607 164.715 217.644Z" fill="black"/>
<path fill-rule="evenodd" clip-rule="evenodd" d="M189.457 126.241C192.889 127.848 195.942 130.418 197.706 133.771C199.47 137.124 199.829 141.288 198.248 144.732C194.976 151.854 184.572 154.627 183.425 162.38C183.133 164.355 183.53 166.409 183.043 168.344C182.705 169.682 181.966 170.876 181.375 172.123C180.107 174.798 179.509 177.786 179.648 180.743C178.326 181.458 176.771 179.934 176.602 178.44C176.433 176.946 177.031 175.462 176.999 173.959C176.939 171.133 174.753 168.884 172.888 166.76C170.092 163.573 167.662 159.823 167.207 155.607C167.061 154.249 167.123 152.864 166.818 151.533C166.489 150.101 165.753 148.802 165.103 147.485C163.349 143.932 162.162 139.832 163.241 136.019C164.321 132.207 168.347 129.054 172.167 130.103C173.252 130.401 174.314 131.01 175.428 130.844C177.383 130.552 178.171 128.22 179.534 126.788C181.977 124.221 186.248 124.739 189.457 126.241ZM172.842 163.287C175.008 166.137 177.174 168.988 179.341 171.838C181.826 169.222 180.798 164.989 181.554 161.46C182.583 156.654 186.883 153.391 190.608 150.183C194.334 146.976 198.032 142.588 197.196 137.743C196.524 133.851 193.127 131.086 189.87 128.85C188.034 127.59 185.915 126.323 183.725 126.728C181.511 127.137 179.993 129.1 178.398 130.69C176.803 132.279 174.397 133.659 172.401 132.618C169.591 131.152 166.014 133.652 165.221 136.72C164.428 139.788 165.568 142.998 166.82 145.91C168.071 148.821 169.483 151.838 169.245 154.998C169.014 158.073 170.976 160.833 172.842 163.287Z" fill="black"/>
<path fill-rule="evenodd" clip-rule="evenodd" d="M0.0191517 97.8121C-0.121486 97.4313 0.546681 97.3238 0.904934 97.5157C0.889488 97.9116 0.280228 98.1123 0.0325961 97.8021L0.0191517 97.8121Z" fill="black"/>
<path fill-rule="evenodd" clip-rule="evenodd" d="M259.885 253.92C260.62 254.022 261.011 254.928 260.844 255.651C260.676 256.375 260.132 256.942 259.61 257.47C255.387 261.738 251.165 266.006 246.942 270.274C246.63 270.589 246.264 270.928 245.82 270.913C245.224 270.894 244.835 270.205 244.907 269.614C244.981 269.022 245.37 268.524 245.747 268.063C249.629 263.312 253.843 258.832 258.347 254.665C258.78 254.264 259.301 253.838 259.885 253.92Z" fill="black"/>
<path fill-rule="evenodd" clip-rule="evenodd" d="M135.726 192.195C138.052 192.406 139.841 194.592 140.24 196.894C140.639 199.196 139.922 201.549 138.949 203.672C138.413 204.842 137.797 205.975 137.106 207.062C136.609 207.843 135.976 208.664 135.063 208.816C133.537 209.069 132.466 207.39 131.878 205.96C131.049 203.948 130.289 201.908 129.599 199.844C129.26 198.831 128.934 197.764 129.108 196.71C129.372 195.098 130.742 193.893 132.177 193.113C133.267 192.521 134.491 192.084 135.726 192.195ZM133.54 204.047C133.718 204.325 133.908 204.61 134.188 204.787C134.417 204.932 134.699 204.992 134.968 204.955C135.659 204.859 136.104 204.193 136.457 203.59C137.382 202.013 138.332 200.359 138.436 198.533C138.539 196.708 137.503 194.678 135.714 194.301C133.621 193.861 131.67 195.958 131.493 198.09C131.315 200.222 132.385 202.247 133.54 204.047Z" fill="black"/>
<path fill-rule="evenodd" clip-rule="evenodd" d="M135.625 196.52C136.199 196.705 136.695 197.125 136.972 197.661C137.219 198.137 137.294 198.702 137.179 199.227C136.913 200.438 135.544 201.284 134.341 200.979C133.138 200.674 132.337 199.278 132.681 198.087C133.024 196.895 134.445 196.139 135.625 196.52ZM135.359 199.035C135.797 198.805 135.406 197.966 134.948 198.152C134.592 198.199 134.358 198.646 134.52 198.965C134.682 199.284 135.181 199.358 135.428 199.099L135.359 199.035Z" fill="black"/>
<path fill-rule="evenodd" clip-rule="evenodd" d="M258.755 219.451C257.458 218.051 256.292 216.529 255.278 214.911C254.954 214.395 255.626 213.721 256.23 213.802C256.836 213.883 257.28 214.39 257.666 214.863C259.01 216.511 260.354 218.159 261.698 219.808C261.543 220.396 260.8 220.662 260.213 220.506C259.625 220.35 259.168 219.898 258.755 219.451Z" fill="black"/>
<path fill-rule="evenodd" clip-rule="evenodd" d="M303.033 295.824C303.048 296.016 302.978 296.204 302.904 296.382C302.166 298.179 301.067 299.827 299.693 301.199C297.506 303.383 294.542 305.001 293.371 307.861C293.094 308.538 292.059 308.636 291.521 308.14C290.983 307.643 290.909 306.791 291.148 306.099C291.386 305.407 291.878 304.836 292.359 304.285C293.927 302.487 295.494 300.69 297.062 298.892C298.263 297.515 299.517 296.097 301.182 295.341C301.867 295.031 302.976 295.074 303.033 295.824Z" fill="black"/>
<path fill-rule="evenodd" clip-rule="evenodd" d="M260.353 211.967C261.9 213.785 263.447 215.604 264.995 217.422C265.255 217.727 265.53 218.074 265.512 218.475C265.485 219.097 264.72 219.469 264.113 219.324C263.507 219.179 263.049 218.694 262.642 218.222C261.331 216.702 260.157 215.063 259.138 213.332C258.741 212.658 258.587 211.478 259.363 211.378C259.761 211.326 260.092 211.662 260.353 211.967Z" fill="black"/>
<path fill-rule="evenodd" clip-rule="evenodd" d="M242.532 222.1C242.297 221.77 242.053 221.339 242.253 220.986C242.581 220.402 243.472 220.855 243.917 221.356C245.489 223.129 246.827 225.109 247.886 227.229C246.877 227.74 245.805 226.701 245.15 225.78C244.278 224.553 243.405 223.327 242.532 222.1Z" fill="black"/>
<path fill-rule="evenodd" clip-rule="evenodd" d="M243.926 227.321C244.556 227.977 245.193 229.053 244.537 229.681C243.87 230.32 242.803 229.599 242.214 228.888C240.788 227.166 239.548 225.291 238.523 223.305C239.181 222.74 240.156 223.397 240.756 224.023C241.813 225.122 242.869 226.222 243.926 227.321Z" fill="black"/>
<path fill-rule="evenodd" clip-rule="evenodd" d="M245.642 220.875C245.357 220.456 245.089 219.881 245.398 219.48C245.839 218.906 246.735 219.433 247.229 219.962C248.66 221.496 250.092 223.031 251.523 224.565C251.46 225.119 250.809 225.451 250.257 225.37C249.705 225.288 249.245 224.916 248.831 224.54C247.628 223.451 246.555 222.218 245.642 220.875Z" fill="black"/>
<path fill-rule="evenodd" clip-rule="evenodd" d="M254.667 217.472C255.559 218.61 256.45 219.747 257.342 220.885C257.695 221.335 258.068 221.915 257.837 222.439C257.615 222.944 256.913 223.078 256.405 222.861C255.898 222.643 255.542 222.183 255.21 221.741C254.28 220.499 253.358 219.251 252.445 217.996C252.243 217.719 252.032 217.408 252.063 217.066C252.114 216.497 252.842 216.202 253.386 216.376C253.93 216.55 254.315 217.023 254.667 217.472Z" fill="black"/>
<path fill-rule="evenodd" clip-rule="evenodd" d="M253.995 222.717C254.181 222.919 254.377 223.153 254.357 223.426C254.331 223.789 253.905 224.015 253.545 223.961C253.184 223.907 252.886 223.66 252.615 223.417C250.836 221.817 249.336 219.907 248.204 217.799C248.427 217.219 249.303 217.612 249.723 218.069C251.147 219.619 252.571 221.168 253.995 222.717Z" fill="black"/>
<path fill-rule="evenodd" clip-rule="evenodd" d="M271.275 212.462C271.413 212.621 271.56 212.804 271.551 213.015C271.539 213.334 271.159 213.534 270.844 213.481C270.529 213.427 270.275 213.202 270.04 212.985C268.365 211.437 266.763 209.811 265.24 208.112C265.779 207.389 266.915 207.969 267.569 208.59C268.865 209.821 270.101 211.114 271.275 212.462Z" fill="black"/>
<path fill-rule="evenodd" clip-rule="evenodd" d="M265.967 214.007C265.03 212.724 264.093 211.441 263.157 210.158C262.985 209.923 262.804 209.637 262.896 209.36C263.078 208.817 263.903 209.059 264.347 209.422C265.756 210.571 266.952 211.98 267.857 213.558C268.032 213.864 268.2 214.227 268.077 214.556C267.918 214.976 267.343 215.1 266.93 214.925C266.516 214.749 266.232 214.37 265.967 214.007Z" fill="black"/>
<path fill-rule="evenodd" clip-rule="evenodd" d="M273.443 209.292C272.517 208.297 271.592 207.302 270.666 206.307C270.337 205.952 270.736 205.323 271.217 205.271C271.699 205.22 272.139 205.524 272.52 205.822C273.223 206.371 273.899 206.951 274.549 207.561C274.908 207.898 275.272 208.267 275.408 208.741C275.543 209.215 275.357 209.817 274.892 209.978C274.356 210.162 273.828 209.707 273.443 209.292Z" fill="black"/>
<path fill-rule="evenodd" clip-rule="evenodd" d="M271.647 211.262C270.366 209.948 269.139 208.582 267.97 207.168C267.767 206.922 267.553 206.618 267.639 206.311C267.737 205.964 268.191 205.828 268.533 205.944C268.874 206.06 269.124 206.348 269.357 206.623C270.427 207.89 271.498 209.156 272.568 210.423C272.858 210.766 273.143 211.305 272.814 211.61C272.483 211.918 271.962 211.586 271.647 211.262Z" fill="black"/>
<path fill-rule="evenodd" clip-rule="evenodd" d="M332.577 292.462C334.022 292.016 337.682 291.023 339.128 290.577C339.776 290.377 340.739 290.351 340.86 291.018C340.961 291.567 340.33 291.941 339.8 292.118C338.34 292.609 334.616 293.497 333.087 293.682C332.542 293.747 331.752 293.544 331.862 293.007C331.925 292.699 332.275 292.555 332.577 292.462Z" fill="black"/>
<path fill-rule="evenodd" clip-rule="evenodd" d="M171.043 232.001C173.332 232.035 176.038 232.568 176.951 234.666C177.808 236.638 176.46 239.009 174.569 240.032C172.678 241.055 170.425 241.08 168.275 241.077C138.941 241.04 109.608 240.332 80.3053 238.954C78.4794 238.868 78.3068 236.233 78.7239 234.454C78.9727 233.391 79.2529 232.272 80.0189 231.495C81.1214 230.378 82.8698 230.302 84.4394 230.297C105.504 230.228 126.608 230.162 147.584 232.101C150.906 232.408 154.232 232.765 157.568 232.733C162.068 232.689 166.544 231.936 171.043 232.001ZM174.328 237.326C174.819 236.367 174.096 235.147 173.112 234.706C172.129 234.266 170.997 234.381 169.925 234.486C156.174 235.839 142.329 234.277 128.535 233.471C118.509 232.885 108.465 232.698 98.4237 232.512C94.2378 232.435 90.0518 232.357 85.8658 232.279C84.5307 232.254 83.0674 232.272 82.0419 233.127C81.0157 233.982 80.9813 235.998 82.2545 236.401C82.4846 236.474 82.7291 236.486 82.9705 236.498C112.441 237.931 141.95 238.574 171.455 238.426C172.537 238.421 173.835 238.289 174.328 237.326Z" fill="black"/>
<path fill-rule="evenodd" clip-rule="evenodd" d="M152.316 255.713C154.931 261.439 160.567 265.678 166.794 266.603C169.724 267.039 171.724 269.704 173.392 272.151C175.126 274.695 176.398 279.006 173.532 280.129C184.657 292.398 195.783 304.665 206.908 316.934C208.2 318.359 209.455 320.738 207.957 321.945C207.401 322.392 206.638 322.463 205.924 322.487C196.758 322.794 188.109 318.504 180.177 313.901C168.754 307.273 157.844 299.761 147.577 291.454C140.076 285.385 129.3 283.649 120.272 287.055C115.589 288.822 109.718 285.22 109.171 280.244C108.625 275.269 113.574 270.479 118.529 271.186C111.079 260.132 97.7552 253.301 84.4313 253.704C68.3502 254.19 52.2041 252.503 36.5708 248.703C35.1975 248.369 33.723 247.952 32.8619 246.832C31.1441 244.598 32.9457 241.422 34.8336 239.329C48.7416 223.917 70.1412 215.601 90.8072 217.58C91.6876 217.665 92.1666 216.595 92.373 215.736C97.6264 193.842 102.88 171.949 108.133 150.055C108.766 147.415 112.785 147.05 114.776 148.896C116.767 150.742 117.204 153.684 117.434 156.39C119.145 176.555 116.157 198.266 126.182 215.847C126.649 216.666 127.176 217.505 127.996 217.969C128.804 218.428 129.777 218.456 130.707 218.472C149.268 218.801 167.829 219.13 186.39 219.459C188.702 219.499 191.542 219.224 192.476 217.109C194.87 211.687 197.265 206.265 199.658 200.843C200.42 199.118 201.471 197.161 203.335 196.877C206.004 196.47 207.694 199.823 207.607 202.522C207.521 205.222 206.613 208.09 207.802 210.515C212.162 205.88 216.597 201.185 222.05 197.904C227.503 194.623 234.2 192.88 240.314 194.643C234.909 203.238 229.503 211.833 224.098 220.427C228.612 223.415 228.968 230.971 224.754 234.37C222.955 235.821 224.383 238.685 225.873 240.451C230.543 245.986 235.213 251.521 239.882 257.056C235.896 258.904 231.255 257.003 227.336 255.017C220.331 251.468 213.494 247.589 206.854 243.398C203.632 241.365 200.08 245.178 197.156 247.62C192.513 251.498 186.104 252.269 180.086 252.883C170.829 253.826 161.572 254.77 152.316 255.713ZM168.462 243.681C174.149 243.993 179.944 244.386 185.462 242.977C191.113 241.533 196.255 238.173 199.845 233.577C200.716 232.461 202.243 232.146 203.639 231.905C208.457 231.076 213.531 230.266 218.134 231.914C220.211 232.658 222.744 231.807 223.951 229.96C225.157 228.113 224.918 225.451 223.403 223.849C221.763 223.804 221.464 226.131 220.594 227.522C219.451 229.35 216.958 229.647 214.805 229.756C206.907 230.153 199.009 230.55 191.11 230.947C189.193 231.044 186.551 230.485 186.609 228.566C186.634 227.722 187.251 227.025 187.855 226.434C189.976 224.364 192.396 222.602 195.018 221.219C162.947 221.462 130.873 221.102 98.8164 220.138C83.053 219.664 66.2434 219.305 52.8119 227.569C51.5581 228.34 50.5776 230.615 52.0321 230.84C56.3169 231.501 60.6017 232.162 64.8865 232.823C65.3967 232.902 65.9427 232.998 66.3122 233.359C67.4191 234.44 65.8682 236.179 64.4419 236.78C58.5556 239.258 51.5425 238.88 45.957 235.783C44.6913 235.082 43.1893 234.229 41.8998 234.885C40.3421 235.679 40.556 238.183 41.8773 239.328C43.1993 240.473 45.0815 240.634 46.8262 240.742C62.5033 241.709 78.1804 242.677 93.8569 243.644C98.2636 243.916 102.684 244.188 107.09 243.913C127.52 242.64 148.024 242.562 168.462 243.681ZM191.346 304.455C185.86 296.906 179.609 289.912 172.723 283.614C170.468 281.552 168.482 279.218 166.502 276.89C157.845 266.713 149.19 256.537 140.533 246.361C139.669 245.345 138.175 245.211 136.842 245.169C125.473 244.809 114.066 245.653 102.874 247.685C102.046 247.835 101.153 248.028 100.607 248.668C99.3398 250.151 100.923 252.317 102.408 253.581C117.269 266.234 132.676 278.246 148.571 289.572C151.496 291.656 154.465 293.733 157.769 295.144C164.002 297.805 170.235 300.466 176.467 303.128C181.235 305.165 186.92 307.156 191.346 304.455ZM116.919 192.099C116.69 189.126 116.689 186.101 115.872 183.234C114.4 178.068 110.475 174.011 106.569 170.325C106.265 170.039 105.866 169.732 105.474 169.875C105.118 170.005 104.989 170.432 104.908 170.802C101.996 184.061 99.0847 197.32 96.1731 210.579C95.6241 213.082 95.0713 215.619 95.1901 218.178C105.397 218.307 115.605 218.436 125.813 218.564C120.727 210.656 117.641 201.474 116.919 192.099ZM236.853 196.502C230.513 195.96 223.983 198.291 219.418 202.724C211.056 210.845 202.127 218.381 192.718 225.26C191.429 226.202 190.049 227.245 189.612 228.78C197.495 228.425 205.379 228.069 213.262 227.713C215.341 227.619 217.789 227.308 218.783 225.48C224.223 215.472 230.261 205.79 236.853 196.502ZM34.504 243.445C34.2895 243.905 34.0988 244.417 34.2183 244.91C34.429 245.781 35.447 246.144 36.3187 246.356C53.945 250.632 72.2316 251.183 90.3619 251.714C92.166 251.767 94.0376 251.807 95.6942 251.091C97.3507 250.374 98.7276 248.671 98.4581 246.886C86.6731 245.253 74.778 244.416 62.8804 244.383C55.7529 244.363 48.4227 244.6 41.741 242.119C40.1289 241.521 38.3048 240.321 38.5099 238.614C36.7934 239.849 35.4001 241.53 34.504 243.445ZM202.584 240.262C201.951 238.89 200.169 238.383 198.692 238.7C197.215 239.016 195.96 239.952 194.721 240.817C191.862 242.814 188.769 244.575 185.376 245.38C182.417 246.081 179.339 246.031 176.299 245.977C165.201 245.78 154.102 245.583 143.004 245.387C145.475 249.075 148.862 253.217 153.275 252.733C161.908 251.785 170.653 252.011 179.245 250.744C187.836 249.475 196.542 246.501 202.584 240.262ZM228.261 249.756C228.665 249.702 229.136 249.567 229.263 249.18C229.369 248.855 229.175 248.514 228.985 248.23C225.788 243.42 221.851 239.155 217.932 234.913C217.335 234.266 216.711 233.601 215.899 233.259C215.058 232.905 214.111 232.939 213.202 233.007C209.485 233.286 205.803 234.043 202.278 235.257C201.99 235.355 201.656 235.515 201.623 235.818C201.597 236.053 201.774 236.257 201.94 236.426C205.643 240.191 210.276 242.881 214.849 245.525C218.987 247.917 223.525 250.395 228.261 249.756ZM122.868 273.943C122.523 273.676 122.155 273.399 121.722 273.343C121.37 273.297 121.019 273.403 120.681 273.508C119.897 273.752 119.113 273.995 118.331 274.237C117.563 274.476 116.604 275.182 117.047 275.853C118.428 277.944 118.989 280.563 118.585 283.036C118.454 283.839 119.609 284.126 120.42 284.069C124.613 283.773 128.806 283.477 133 283.181C133.437 283.15 134.027 282.928 133.925 282.502C130.239 279.649 126.554 276.796 122.868 273.943ZM194.718 217.234C194.423 218.004 195.208 218.841 196.029 218.926C196.849 219.011 197.63 218.597 198.351 218.196C200.949 216.749 203.751 215.07 204.732 212.262C205.052 211.348 205.151 210.373 205.248 209.409C205.413 207.755 205.578 206.1 205.743 204.446C205.78 204.079 205.81 203.681 205.616 203.367C205.421 203.053 204.905 202.926 204.69 203.226C203.818 204.436 202.539 205.348 201.109 205.776C200.491 205.961 199.827 206.068 199.306 206.449C198.685 206.902 198.381 207.66 198.106 208.378C196.976 211.33 195.847 214.282 194.718 217.234ZM168.881 270.25C167.749 268.139 164.63 267.429 162.695 268.844C165.189 270.792 166.595 273.798 168.711 276.15C169.439 276.96 170.386 277.743 171.473 277.671C172.559 277.6 173.457 276.148 172.688 275.377C171.177 273.867 169.89 272.133 168.881 270.25ZM113.449 276.009C111.765 277.652 112.339 280.435 113.033 282.682C113.267 283.44 114.014 284.382 114.634 283.887C114.844 283.719 114.919 283.437 114.982 283.175C115.293 281.884 115.605 280.563 115.467 279.242C115.328 277.921 114.647 276.579 113.449 276.009Z" fill="black"/>
<path fill-rule="evenodd" clip-rule="evenodd" d="M299.57 336.474C296.05 332.966 294.383 328.059 292.828 323.339C288.753 329.241 283.467 333.43 277.22 329.908C270.972 326.387 262.944 316.239 258.458 310.644C250.427 300.626 240.885 291.821 230.256 284.617C235.933 290.845 239.328 299.109 239.668 307.528C243.974 307.484 248.28 307.439 252.586 307.394C238.109 312.327 222.6 314.207 207.364 312.876C215.642 305.914 222.117 296.823 225.989 286.723C225.125 283.99 221.018 284.624 218.621 286.193C216.223 287.763 213.12 289.756 210.81 288.059C207.966 285.97 208.162 279.427 204.785 280.45C196.019 283.107 185.626 277.829 182.598 269.184C180.53 270.477 178.463 271.769 176.395 273.062C175.399 269.859 180.009 267.384 183.116 268.648C186.223 269.911 188.044 273.053 190.198 275.624C192.353 278.194 195.81 280.463 198.885 279.124C204.615 276.628 212.151 281.136 212.663 287.364C217.106 283.799 223.201 282.385 228.76 283.631C225.214 278.493 221.256 273.64 216.937 269.133C220.221 264.757 224.28 260.967 228.87 257.991C226.618 262.249 223.495 266.046 219.751 269.078C238.954 287.904 258.156 306.731 277.36 325.557C278.569 326.742 279.954 328.005 281.647 328.029C283.502 328.054 284.998 326.594 286.262 325.237C295.274 315.564 304.287 305.893 313.3 296.222C315.648 293.702 318.118 290.924 318.471 287.498C318.913 283.195 315.909 279.379 313.041 276.141C301.501 263.113 289.222 250.739 276.284 239.097C270.609 233.992 263.128 228.683 255.989 231.386C247.375 234.648 245.325 247.612 236.477 250.173C239.122 246.536 241.768 242.9 244.413 239.264C239.168 235.469 232.608 227.001 232.266 220.536C236.477 216.701 241.668 213.796 245.974 211.569C241.668 201.431 242.179 199.323 247.937 197.939C253.696 196.554 258.684 195.182 263.976 193.412C278.647 188.506 285.65 165.241 273.335 155.577C266.56 150.261 215.784 98.0779 193.983 78.8383C195.634 86.2022 185.934 93.1453 179.496 89.2069C180.731 93.4517 177.762 98.5888 173.377 99.1485C168.991 99.7088 164.713 94.8462 166.249 90.7002C167.57 87.1321 171.797 85.6557 174.252 82.7479C176.706 79.8407 174.565 73.4504 171.229 75.2808C169.467 82.372 159.097 85.393 153.802 80.3578C151.938 78.585 149.496 78.1492 147 78.5681C143.941 79.0809 138.65 80.2684 136.388 82.4615C132.843 85.8977 132.044 90.9166 127.823 93.2485C127.151 93.6205 126.446 93.9395 125.701 94.1934C120.284 96.0393 112.699 90.6784 115.512 85.6938C100.097 99.9064 89.5159 119.269 85.8783 139.917C93.9232 142.211 95.4509 152.776 95.4284 161.142C86.3523 163.445 94.89 180.769 87.0408 185.874C78.0923 191.694 80.5805 205.227 84.1236 215.295C75.0532 195.775 73.9619 172.685 81.1508 152.396C80.4404 165.268 79.73 178.14 79.019 191.012C85.1054 190.121 87.5636 182.704 88.067 176.574C88.5704 170.443 88.9531 163.23 94.1071 159.873C92.1829 154.969 91.3937 149.623 91.8177 144.371C89.5778 143.648 87.3378 142.925 85.0979 142.202C83.7522 151.679 73.2259 156.341 64.5457 160.376C55.1744 164.733 46.3585 170.281 38.3767 176.844C29.8153 183.885 21.6622 193.564 22.6104 204.608C23.5219 215.227 32.6724 223.347 42.2788 227.962C31.9921 227.939 23.1624 218.788 21.5042 208.635C19.8459 198.483 24.2698 188.038 31.186 180.423C38.1016 172.808 47.2727 167.631 56.5727 163.233C68.751 157.474 83.5227 150.004 83.9773 136.54C84.3556 125.317 96.6659 114.317 90.7684 104.76C82.4852 91.3362 77.8653 75.6766 77.5351 59.9063C77.3719 52.1265 78.792 43.3194 85.1698 38.8601C88.3452 36.6402 92.2955 35.8654 96.1444 35.4233C110.418 33.7843 125.124 36.0711 138.226 41.9686C145.958 45.4486 154.403 50.2731 162.36 47.3421C180.913 40.5079 200.648 36.8966 220.419 36.7171C223.055 36.6927 225.243 34.7579 227.077 32.8657C234.299 25.4211 240.324 16.8065 248.183 10.0379C256.041 3.26925 266.495 -1.6036 276.652 0.491142C287.286 2.68419 295.225 12.154 298.699 22.4407C302.172 32.7281 301.975 43.8415 301.741 54.696C301.321 74.1364 325.704 84.7233 331.997 103.121C335.707 113.968 347.948 118.995 358.957 122.196C369.965 125.396 382.297 128.941 387.971 138.903C393.256 148.182 390.643 160.337 384.404 169.003C378.165 177.67 368.928 183.607 359.916 189.336C345.327 198.612 349.422 222.334 337.679 235.023C331.76 241.42 333.78 251.627 336.853 259.783C339.925 267.939 343.703 277.011 340.221 285.002C338.32 272.2 334.981 259.613 330.287 247.552C323.741 252.311 327.056 262.55 330.958 269.639C335.875 278.574 340.793 287.508 345.71 296.442C347.755 300.157 349.87 304.252 349.134 308.428C348.293 313.204 344.037 316.509 340.094 319.334C331.095 325.784 322.094 332.233 313.094 338.683C309.055 341.578 303.089 339.983 299.57 336.474ZM318.778 254.13C317.988 253.242 316.544 253.676 315.465 254.174C314.384 254.673 313.303 255.172 312.222 255.672C311.985 255.781 311.723 255.893 311.472 255.825C310.997 255.696 310.918 254.993 311.215 254.602C311.514 254.211 312.018 254.054 312.486 253.902C313.482 253.579 314.454 253.182 315.392 252.715C315.928 252.448 316.503 252.096 316.649 251.515C316.795 250.934 316.128 250.228 315.635 250.569C314.184 251.568 312.552 252.305 310.841 252.73C310.329 252.857 309.529 252.697 309.649 252.182C309.696 251.985 309.879 251.856 310.05 251.747C311.576 250.788 313.241 250.051 314.977 249.566C315.603 249.391 315.447 248.339 314.852 248.081C314.256 247.823 313.575 248.084 312.98 248.344C311.541 248.971 310.102 249.598 308.663 250.225C308.354 250.36 308.008 250.537 307.925 250.864C307.852 251.156 308.021 251.45 308.184 251.705C309.23 253.343 310.275 254.98 311.322 256.617C311.481 256.867 311.662 257.134 311.943 257.225C312.249 257.325 312.576 257.187 312.867 257.051C314.859 256.122 316.83 255.147 318.778 254.13ZM220.466 75.9968C217.079 76.0549 214.536 72.2041 215.166 68.8761C215.796 65.5475 218.789 63.0567 222.029 62.07C226.433 60.7293 231.69 61.514 235.2 58.5356C236.777 57.198 237.739 55.2764 239.176 53.7887C242.305 50.5457 247.75 49.8591 251.587 52.2247C252.448 49.9641 249.899 47.7786 247.514 47.3759C245.128 46.9732 242.556 47.4541 240.359 46.4423C236.499 44.6651 231.954 46.9482 228.864 49.866C225.775 52.7844 223.242 56.4601 219.434 58.3467C215.626 60.2334 209.865 59.1809 208.818 55.0625C208.492 53.7793 208.452 52.079 207.2 51.6463C205.226 50.9634 204.199 48.6591 204.316 46.5736C204.433 44.4881 205.433 42.5689 206.411 40.723C202.543 40.5285 198.658 40.6485 194.809 41.0819C193.886 41.1857 192.712 41.5759 192.715 42.5045C192.718 44.4249 190.936 45.8026 189.334 46.8612C185.944 49.1024 182.553 51.3436 179.162 53.5848C179.269 55.8229 182.569 56.3588 184.502 55.2251C186.435 54.0913 187.797 52.0646 189.881 51.2411C190.994 50.8008 192.216 50.7471 193.412 50.6983C195.455 50.6151 197.498 50.5319 199.54 50.4488C202.158 50.3425 205.689 51.0072 205.828 53.623C205.941 55.7685 203.559 57.0216 202.034 58.5356C198.563 61.9799 198.575 68.6472 194.02 70.4257C192.401 71.0573 191.965 73.2997 192.675 74.8862C193.386 76.472 194.866 77.5501 196.268 78.5781C220.723 96.5221 263.326 142.784 264.258 142.907C265.19 143.031 266.284 142.362 266.232 141.424C266.097 138.996 265.966 136.524 266.56 134.167C267.154 131.809 268.595 129.54 270.817 128.554C272.866 127.646 275.846 127.44 276.29 125.243C277.282 120.33 282.2 116.53 287.206 116.811C289.664 116.949 292.378 117.888 294.424 116.517C292.774 114.952 290.335 114.629 288.289 113.635C286.243 112.641 284.443 110.126 285.665 108.207C287.471 105.374 284.841 101.67 285.382 98.3537C285.611 96.9467 286.406 95.701 287.246 94.5492C290.095 90.6452 293.693 87.2897 297.786 84.7202C298.738 84.123 298.976 82.8648 299.126 81.7511C299.488 79.0628 299.85 76.3738 300.212 73.6849C300.465 71.8089 300.635 69.6565 299.348 68.2689C295.159 63.7534 288.185 63.6052 282.028 63.8065C275.872 64.0072 268.916 63.9278 264.651 59.4836C263.327 58.1041 260.91 58.5731 259.475 59.8357C258.039 61.0982 257.245 62.916 256.177 64.5013C252.838 69.4533 246.374 72.0778 240.528 70.8553C237.397 70.2006 234.241 68.5503 231.166 69.4339C227.068 70.612 224.73 75.9242 220.466 75.9968ZM338.122 197.884C338.31 198.567 338.586 199.348 339.256 199.578C339.794 199.762 340.373 199.51 340.885 199.263C342.586 198.444 344.287 197.625 345.988 196.806C346.861 196.385 347.841 195.828 347.996 194.871C351.145 175.477 350.233 155.433 345.336 136.405C344.178 131.905 342.797 127.452 340.955 123.186C338.604 117.736 335.523 112.634 332.36 107.612C327.808 100.382 323.065 93.2729 318.136 86.2941C317.222 87.7205 316.949 89.4477 316.484 91.0767C316.019 92.7057 315.239 94.3941 313.743 95.1883C312.247 95.9824 309.948 95.3083 309.683 93.6356C309.11 90.0186 305.228 87.2834 301.629 87.9607C300.855 88.1064 300.599 89.0687 300.503 89.8504C299.627 96.9548 298.751 104.06 297.875 111.164C297.811 111.681 297.784 112.295 298.191 112.621C298.529 112.891 299.011 112.831 299.445 112.825C301.894 112.788 304.03 115.346 303.557 117.75C303.084 120.154 300.138 121.712 297.884 120.749C296.912 120.334 296.15 121.652 295.907 122.68C294.436 128.891 292.964 135.102 291.493 141.313C291.059 143.145 292.641 144.874 294.343 145.679C296.044 146.484 297.989 146.775 299.55 147.827C303.461 150.461 303.293 156.452 306.455 159.949C309.032 162.798 313.799 163.316 316.928 161.087C319.727 159.093 320.943 155.45 320.945 152.014C320.945 149.67 322.401 147.388 324.526 146.399C326.651 145.411 329.334 145.766 331.128 147.275C332.875 148.744 333.667 151.027 334.382 153.195C334.698 154.151 335.014 155.194 334.675 156.142C334.121 157.692 332.215 158.151 330.658 158.683C327.797 159.661 325.289 161.641 323.674 164.197C322.886 165.444 322.351 167.194 323.327 168.301C325.711 171.006 328.096 173.711 330.479 176.417C331.726 177.831 333.011 179.314 333.511 181.132C335.048 186.716 336.585 192.299 338.122 197.884ZM95.2589 108.956C98.9953 101.982 102.768 94.9544 107.844 88.8861C112.289 83.5721 117.643 79.1034 122.989 74.6967C130.032 68.8911 137.119 63.1374 144.247 57.4362C147.214 55.0631 150.228 52.675 153.687 51.1035C143.316 46.5336 132.878 41.9405 121.868 39.2559C110.857 36.572 99.1291 35.8716 88.2646 39.0977C87.2178 39.4085 86.1666 39.7618 85.263 40.3747C83.7372 41.4102 82.7735 43.0867 82.0506 44.7833C79.2091 51.4493 79.3686 59.0027 80.2928 66.1903C82.2332 81.279 87.3672 95.9499 95.2589 108.956ZM329.423 315.901C329.325 316.913 328.232 317.866 327.315 317.426C326.882 317.218 326.618 316.777 326.38 316.36C322.721 309.974 319.063 303.587 315.406 297.201C313.045 298.09 311.911 300.935 312.176 303.443C312.441 305.951 313.779 308.2 315.084 310.358C317.08 313.658 319.077 316.958 321.074 320.259C320.024 321.34 318.333 319.903 317.556 318.612C314.785 314.012 312.014 309.412 309.244 304.813C303.952 310.256 298.66 315.699 293.368 321.142C296.814 326.529 300.261 331.916 303.708 337.303C304.519 338.572 306.258 338.978 307.732 338.659C309.204 338.34 310.477 337.446 311.706 336.573C320.941 330.003 330.177 323.435 339.413 316.866C340.115 316.367 340.867 315.797 341.073 314.96C341.288 314.086 340.84 313.198 340.406 312.408C319.514 274.402 297.217 237.168 273.574 200.808C272.878 199.738 271.998 198.555 270.724 198.471C269.875 198.415 269.088 198.877 268.363 199.323C258.986 205.093 249.61 210.864 240.233 216.634C238.497 217.702 236.761 218.77 235.025 219.839C234.573 220.117 234.086 220.439 233.935 220.947C233.756 221.548 234.111 222.166 234.453 222.691C237.869 227.939 241.474 233.062 245.261 238.049C249.736 233.232 255.059 228.045 261.631 228.209C267.305 228.349 271.986 232.476 276.119 236.367C278.537 238.642 280.954 240.918 283.372 243.193C279.551 236.035 275.034 229.25 269.904 222.963C269.683 221.905 271.547 222.194 272.265 223.002C279.423 231.054 283.364 241.636 290.901 249.334C298.605 257.2 306.308 265.066 314.011 272.933C317.282 276.274 320.755 280.049 321.012 284.718C321.248 288.982 318.72 292.862 316.179 296.294C320.659 301.583 324.758 307.196 328.431 313.074C328.97 313.937 329.521 314.888 329.423 315.901ZM247.843 41.6009C251.087 42.2438 254.334 42.8872 257.517 43.7859C265.714 46.1008 273.335 50.0611 280.89 53.995C287.483 57.4281 294.112 60.8843 300.03 65.383C300.673 49.3013 300.036 33.3328 294.685 18.1534C293.142 13.7761 289.415 9.05608 285.789 6.15829C281.533 2.7561 275.623 2.1574 270.228 2.92913C260.805 4.27728 252.222 9.32435 245.153 15.6996C238.083 22.0749 232.351 29.7671 226.668 37.4043C233.726 38.8032 240.785 40.2021 247.843 41.6009ZM342.509 119.66C351.615 142.89 354.588 168.492 351.05 193.19C362.605 186.568 372.932 177.813 381.356 167.497C385.553 162.357 389.443 156.306 389.17 149.675C388.945 144.226 385.845 139.196 381.752 135.592C377.659 131.987 372.631 129.631 367.579 127.577C359.453 124.272 351.06 121.622 342.509 119.66ZM324.653 159.379C326.793 157.809 329.082 156.443 331.48 155.307C331.474 153.777 331.458 152.197 330.844 150.795C330.23 149.393 328.852 148.207 327.325 148.312C325.721 148.423 324.51 149.889 324 151.414C323.491 152.94 323.482 154.585 323.13 156.154C322.156 160.495 318.308 164.038 313.903 164.653C309.497 165.269 304.828 162.916 302.701 159.008C300.987 155.859 300.73 151.785 297.999 149.462C296.486 148.175 294.473 147.681 292.54 147.226C292.091 147.121 291.614 147.016 291.178 147.165C290.476 147.405 290.147 148.189 289.9 148.887C288.244 153.568 286.589 158.248 284.934 162.929C284.322 164.66 283.818 166.873 285.186 168.098C297.823 179.406 302.966 197.393 315.817 208.457C316.197 208.784 316.666 209.126 317.155 209.01C323.285 207.556 329.229 205.314 334.793 202.359C335.236 202.123 335.698 201.863 335.952 201.431C336.209 200.993 336.208 200.453 336.182 199.945C335.998 196.448 334.959 192.999 333.179 189.983C332.337 188.557 331.304 187.149 331.143 185.5C331.006 184.093 331.529 182.649 331.195 181.275C330.922 180.154 330.118 179.249 329.342 178.394C327.148 175.978 324.953 173.563 322.759 171.148C321.673 169.953 320.546 168.679 320.213 167.1C319.565 164.022 322.118 161.239 324.653 159.379ZM187.121 88.2721C189.71 86.715 191.279 83.609 190.996 80.6011C190.582 76.2125 186.803 73.0139 183.313 70.3194C177.597 65.9051 164.523 55.1794 158.776 52.8738C153.028 50.5682 127.598 73.2522 118.761 81.9493C118.315 82.3883 117.85 82.8673 117.725 83.4814C117.601 84.0948 114.901 90.699 120.337 92.3042C125.775 93.9094 126.357 92.6725 128.579 90.699C130.8 88.7254 132.093 85.9258 133.137 83.1443C134.028 80.7681 136.723 79.6312 139.209 79.1247C141.696 78.6182 144.376 78.4293 146.432 76.9429C148.574 75.3952 151.566 75.4852 154.007 76.497C156.448 77.5088 158.464 79.3092 160.43 81.077C162.071 82.5534 164.725 80.9025 165.737 78.9396C166.749 76.9773 167.174 74.556 168.944 73.2359C171.475 71.348 175.358 73.0377 176.916 75.7835C179.132 79.6881 177.565 85.2636 173.64 87.4429C171.365 88.7054 168.036 89.5521 167.946 92.1523C167.901 93.4448 168.803 94.5817 169.809 95.3959C171.613 96.8548 174.551 97.5476 176.088 95.8092C178.278 93.3316 175.832 88.0964 178.866 86.78C181.545 85.6182 184.619 89.7779 187.121 88.2721ZM256.297 60.5567C257.205 59.149 258.114 57.607 259.628 56.8891C261.563 55.9723 263.886 56.7009 265.721 57.8033C267.556 58.9058 269.195 60.3816 271.208 61.1107C273.257 61.853 275.502 61.7529 277.678 61.6429C281.297 61.4603 284.918 61.2777 288.537 61.0951C266.657 48.4177 242.047 39.5273 216.761 39.2772C214.629 39.2566 212.45 39.3047 210.449 40.042C208.449 40.7799 206.633 42.332 206.121 44.4006C205.339 47.5516 208.206 50.919 211.45 51.0197C209.756 52.2604 210.016 55.1419 211.631 56.4857C213.246 57.829 215.662 57.8183 217.6 57.0098C219.538 56.2006 221.109 54.7254 222.634 53.2803C225.471 50.592 228.309 47.903 231.146 45.2141C232.929 43.5245 235.706 43.4525 238.116 43.9297C240.526 44.4068 242.886 45.3298 245.342 45.2698C250.499 45.1447 255.067 50.4394 254.187 55.5227C251.873 53.3397 248.506 52.3279 245.371 52.8738C242.237 53.4191 239.41 55.509 237.968 58.3461C236.8 60.6455 234.192 61.8611 231.657 62.3339C229.121 62.8072 226.501 62.7084 223.975 63.2306C221.449 63.7521 218.874 65.0822 217.841 67.4453C216.807 69.8091 218.157 73.1796 220.726 73.4179C223.717 73.6955 225.464 70.1824 227.98 68.5409C230.375 66.9788 233.501 67.1833 236.295 67.7905C239.09 68.3977 241.883 69.3557 244.732 69.1094C249.683 68.681 253.605 64.7339 256.297 60.5567ZM336.422 204.618C330.689 206.829 324.956 209.04 319.223 211.25C318.425 211.557 317.455 212.343 317.934 213.051C323.402 221.122 327.612 230.044 330.364 239.396C330.631 240.307 332.013 239.625 332.553 238.845C337.567 231.595 341.565 223.644 344.393 215.296C344.905 213.785 345.382 212.152 344.943 210.619C344.253 208.209 341.662 206.994 339.753 205.369C339.226 204.92 338.692 204.401 338.008 204.301C337.468 204.223 336.931 204.422 336.422 204.618ZM270.285 132.932C267.652 135.728 269.864 140.466 268.511 144.061C268.211 144.857 267.727 145.698 268.004 146.503C268.141 146.905 268.45 147.219 268.75 147.519C269.686 148.458 270.622 149.396 271.559 150.335C272.294 151.071 273.486 151.834 274.252 151.13C277.402 148.233 281.217 146.065 285.318 144.842C286.498 144.489 287.776 144.171 288.6 143.255C289.327 142.447 289.561 141.323 289.768 140.256C290.926 134.283 292.076 128.308 293.218 122.333C293.307 121.866 293.393 121.366 293.203 120.931C293.001 120.47 292.535 120.187 292.081 119.971C287.468 117.773 281.266 120.025 279.136 124.669C278.413 126.245 278.079 128.07 276.866 129.308C275.097 131.113 272.018 131.092 270.285 132.932ZM178.321 56.5283C177.429 55.7191 176.507 54.7035 176.595 53.5023C176.688 52.2222 177.874 51.3399 178.948 50.637C182.754 48.1475 186.56 45.6581 190.366 43.1693C190.273 42.4301 189.237 42.352 188.504 42.4852C178.649 44.2774 168.994 47.1658 159.774 51.081C170.056 57.4194 179.92 64.4356 189.281 72.069C190.417 69.4902 193.341 68.2207 195.072 65.9971C197.259 63.1881 197.422 59.0165 200.112 56.684C201.431 55.539 203.392 54.7454 203.655 53.0189C201.347 53.0352 199.038 53.0514 196.729 53.067C193.921 53.0871 190.931 53.1596 188.597 54.7223C186.561 56.0862 184.996 58.5668 182.546 58.6369C180.931 58.6832 179.516 57.6138 178.321 56.5283ZM293.42 210.117C295.211 213.33 297.003 216.542 298.796 219.755C295.513 209.311 291.598 199.065 287.08 189.093C286.92 188.738 286.736 188.36 286.392 188.178C285.968 187.953 285.452 188.102 284.997 188.253C272.269 192.51 259.54 196.765 246.812 201.021C246.425 201.15 246.006 201.305 245.799 201.656C245.549 202.077 245.698 202.613 245.865 203.073C246.611 205.131 247.588 207.106 248.77 208.948C256.753 204.304 264.736 199.659 272.718 195.014C273.947 194.299 275.24 193.564 276.661 193.511C277.836 193.466 278.979 193.898 280.029 194.427C286.266 197.573 290.017 204.017 293.42 210.117ZM235.629 297.034C234.025 293.607 231.271 290.801 228.111 288.721C224.23 295.932 219.775 302.834 214.804 309.342C214.424 309.84 214.284 310.858 214.909 310.814C220.97 310.388 227.032 309.961 233.093 309.536C234.309 309.45 235.772 309.194 236.219 308.059C237.606 304.539 237.234 300.461 235.629 297.034ZM327.145 246.478C327.635 245.727 328.135 244.954 328.334 244.078C328.597 242.92 328.307 241.715 327.994 240.569C325.59 231.759 321.808 223.35 317.087 215.533C316.537 214.623 315.946 213.691 315.051 213.117C314.156 212.543 312.87 212.438 312.09 213.159C311.046 214.123 311.442 215.825 311.918 217.163C315.681 227.766 319.444 238.369 323.207 248.971C323.432 249.603 323.942 250.38 324.567 250.138C324.811 250.043 324.969 249.812 325.112 249.594C325.789 248.555 326.467 247.516 327.145 246.478ZM289.374 111.625C290.464 112.544 291.909 112.892 293.298 113.212C294.412 113.469 295.07 112.017 295.263 110.89C296.551 103.367 297.378 95.7742 298.204 88.1864C297.572 87.9181 296.902 88.434 296.409 88.9118C294.638 90.6296 292.868 92.3474 291.098 94.0652C289.865 95.2608 288.576 96.5527 288.186 98.2249C287.441 101.407 290.154 105.035 288.439 107.817C287.692 109.03 288.285 110.707 289.374 111.625ZM285.518 171.805C285.093 171.328 284.634 170.835 284.026 170.638C283.417 170.441 282.624 170.664 282.412 171.268C280.528 176.66 278.643 182.052 276.758 187.444C276.579 187.956 276.699 188.819 277.22 188.666C280.399 187.728 283.332 186.067 286.525 185.176C289.717 184.284 293.45 184.295 296.001 186.412C293.026 181.197 289.507 176.293 285.518 171.805ZM312.749 92.9571C313.705 90.3632 314.661 87.7693 315.618 85.1754C315.803 84.6726 315.436 84.1492 315.091 83.739C311.677 79.6725 308.235 75.5778 304.101 72.2448C303.926 72.1028 303.726 71.9552 303.501 71.9671C303.071 71.9903 302.9 72.5243 302.839 72.9501C302.324 76.5665 301.81 80.1834 301.295 83.8003C301.145 84.854 302.116 85.7701 303.134 86.0822C304.152 86.3936 305.248 86.3066 306.295 86.5017C308.224 86.8607 309.933 88.2421 310.689 90.0543C311.169 91.2036 311.524 92.7326 312.749 92.9571ZM282.228 162.821C284.036 158.198 285.694 153.517 287.198 148.787C287.299 148.469 287.4 148.123 287.293 147.806C287.006 146.961 285.755 147.18 284.958 147.58C281.823 149.15 278.809 150.96 275.951 152.989C275.596 153.24 275.208 153.558 275.195 153.993C275.184 154.323 275.396 154.612 275.599 154.872C277.722 157.592 279.934 160.244 282.228 162.821ZM308.743 239.014C308.405 238.645 307.849 238.588 307.348 238.596C306.214 238.615 305.085 238.845 304.035 239.273C303.519 239.484 303.005 239.745 302.449 239.774C301.892 239.802 301.267 239.513 301.13 238.972C302.602 237.919 304.387 237.311 306.196 237.245C307 237.215 307.023 235.85 306.317 235.463C305.611 235.077 304.741 235.359 303.99 235.648C302.748 236.125 301.506 236.602 300.264 237.08C299.902 237.218 299.53 236.781 299.583 236.398C299.635 236.014 299.946 235.723 300.254 235.487C301.371 234.634 302.704 234.066 304.093 233.852C304.756 233.75 304.863 232.722 304.379 232.259C303.895 231.795 303.15 231.765 302.482 231.8C300.536 231.902 298.607 232.323 296.797 233.043C298.341 235.813 299.917 238.565 301.526 241.298C301.942 242.005 302.394 242.745 303.115 243.136C304.411 241.5 306.381 240.415 308.458 240.196C308.956 240.142 309.082 239.384 308.743 239.014ZM335.334 288.991C334.144 289.295 332.966 289.641 331.801 290.03C331.482 290.136 331.113 290.302 331.059 290.634C331.027 290.831 331.122 291.025 331.215 291.202C331.899 292.517 332.583 293.832 333.267 295.147C333.545 295.68 334.104 296.307 334.622 296.002C336.329 294.999 338.235 294.336 340.196 294.065C340.736 293.99 341.089 293.411 341.101 292.867C341.114 292.322 340.872 291.808 340.637 291.317C340.233 290.475 339.789 289.587 338.994 289.097C337.926 288.437 336.551 288.681 335.334 288.991ZM339.926 303.443C339.46 303.528 338.923 303.668 338.741 304.105C338.592 304.46 338.749 304.864 338.904 305.216C339.498 306.563 340.091 307.91 340.685 309.257C340.87 309.678 341.116 310.149 341.565 310.25C341.884 310.32 342.207 310.175 342.503 310.034C343.417 309.596 344.332 309.158 345.247 308.72C345.762 308.473 346.307 308.199 346.59 307.702C346.872 307.206 346.722 306.43 346.172 306.278C345.878 306.197 345.568 306.313 345.294 306.446C344.475 306.844 343.736 307.423 342.862 307.677C341.987 307.931 340.874 307.736 340.458 306.925C342.613 306.16 344.674 305.128 346.577 303.859C346.406 302.67 344.739 302.564 343.557 302.78C342.346 303.002 341.136 303.222 339.926 303.443ZM322.32 272.522C322.67 272.14 323.179 271.954 323.666 271.781C325.008 271.303 326.351 270.826 327.693 270.349C328.391 270.101 328.219 268.941 327.561 268.602C326.903 268.262 326.108 268.474 325.4 268.693C323.865 269.165 322.33 269.638 320.795 270.111C320.595 270.173 320.384 270.24 320.243 270.396C319.922 270.752 320.138 271.312 320.366 271.734C320.975 272.857 321.583 273.981 322.191 275.105C322.262 275.236 322.342 275.376 322.477 275.439C322.64 275.515 322.832 275.457 323.002 275.398C324.87 274.753 326.739 274.107 328.606 273.461C329.052 273.307 329.588 273.025 329.55 272.555C329.499 271.914 328.559 271.909 327.945 272.103C326.024 272.713 324.102 273.323 322.181 273.933C321.842 273.541 321.97 272.902 322.32 272.522ZM346.203 199.211C344.549 200.146 342.894 201.081 341.24 202.016C341.041 202.128 340.832 202.25 340.724 202.451C340.435 202.982 341.005 203.559 341.507 203.896C342.536 204.585 343.565 205.274 344.594 205.964C344.796 206.099 345.015 206.24 345.258 206.242C345.812 206.247 346.098 205.595 346.24 205.06C346.697 203.34 347.153 201.621 347.61 199.902C347.667 199.686 347.723 199.449 347.63 199.246C347.406 198.756 346.672 198.946 346.203 199.211ZM324.424 276.372C324.024 276.475 323.569 276.624 323.419 277.009C323.308 277.295 323.409 277.618 323.539 277.896C323.875 278.612 324.405 279.234 325.058 279.68C326.793 279.018 328.528 278.355 330.264 277.692C331.01 277.407 331.893 276.928 331.861 276.13C331.838 275.559 331.299 275.117 330.739 275.007C330.179 274.897 329.603 275.04 329.049 275.182C327.507 275.579 325.966 275.975 324.424 276.372ZM299.278 213.94C299.885 215.125 301.387 215.468 302.701 215.681C304.798 216.021 306.894 216.36 308.991 216.701C309.027 215.511 307.8 214.719 306.709 214.242C304.711 213.366 302.625 212.69 300.493 212.227C300.263 212.177 300.023 212.129 299.794 212.184C299.111 212.349 298.958 213.314 299.278 213.94ZM291.506 213.042C291.67 212.98 291.836 212.917 291.978 212.813C292.604 212.353 292.413 211.273 291.775 210.831C291.136 210.389 290.272 210.448 289.532 210.681C288.791 210.914 288.1 211.3 287.343 211.47C286.32 211.702 284.981 211.691 284.589 212.664C284.255 213.494 285.022 214.436 285.897 214.628C286.772 214.82 287.668 214.497 288.506 214.18C289.506 213.801 290.506 213.422 291.506 213.042ZM295.531 220.536C296.375 219.985 295.985 218.533 295.086 218.074C294.188 217.616 293.108 217.831 292.125 218.055C291.088 218.293 289.98 218.57 289.274 219.366C288.568 220.161 288.568 221.652 289.532 222.102C290.842 222.714 292.071 220.986 293.5 220.772C294.184 220.67 294.952 220.913 295.531 220.536ZM325.188 267.041C325.471 266.946 325.771 266.84 325.953 266.603C326.156 266.339 326.163 265.964 326.049 265.652C325.779 264.921 324.938 264.532 324.159 264.547C323.381 264.56 322.647 264.892 321.94 265.216C321.039 265.63 320.138 266.043 319.237 266.456C318.742 266.684 318.182 266.993 318.1 267.532C318.016 268.08 318.52 268.577 319.061 268.693C319.604 268.809 320.161 268.646 320.691 268.483C322.195 268.02 323.694 267.539 325.188 267.041ZM329.247 286.116C331.187 285.3 333.127 284.485 335.067 283.669C335.251 283.592 335.441 283.51 335.574 283.363C335.968 282.926 335.608 282.166 335.059 281.956C334.51 281.746 333.897 281.908 333.332 282.072C332.021 282.452 330.71 282.831 329.399 283.211C328.673 283.421 327.862 283.704 327.556 284.394C327.139 285.338 328.296 286.516 329.247 286.116ZM342.344 297.427C343.119 297.128 342.836 295.821 342.066 295.509C341.297 295.195 340.433 295.517 339.654 295.804C338.126 296.367 336.551 296.802 334.951 297.105C334.393 297.855 335.073 299.006 335.973 299.26C336.873 299.515 337.822 299.173 338.694 298.837C339.911 298.367 341.127 297.897 342.344 297.427ZM301.041 210.481C302.604 210.891 304.167 211.301 305.73 211.71C306.325 211.866 307.243 211.779 307.199 211.165C304.499 209.298 301.393 208.023 298.16 207.455C297.989 207.425 297.808 207.397 297.645 207.457C297.084 207.661 297.298 208.529 297.72 208.951C298.594 209.822 299.847 210.168 301.041 210.481ZM306.947 204.441C307.5 205.771 308.053 207.1 308.606 208.43C308.939 209.231 309.313 210.081 310.048 210.542C310.782 211.002 311.978 210.807 312.218 209.974C312.402 209.34 311.973 208.706 311.565 208.185C310.008 206.201 308.405 204.252 306.757 202.342C306.392 202.974 306.667 203.768 306.947 204.441ZM304.27 206.94C304.563 207.041 304.92 207.132 305.158 206.932C305.435 206.697 305.335 206.244 305.146 205.934C304.461 204.805 303.075 204.359 301.805 203.998C300.099 203.513 298.392 203.029 296.686 202.544C296.155 202.394 295.756 203.167 296.004 203.659C296.252 204.151 296.823 204.373 297.344 204.553C299.653 205.348 301.962 206.144 304.27 206.94ZM327.089 280.238C326.61 280.383 326.088 280.559 325.826 280.986C325.36 281.746 326.041 282.736 326.843 283.127C328.653 281.653 330.96 280.802 333.292 280.746C334.086 280.727 334.155 279.396 333.482 278.975C332.809 278.553 331.936 278.771 331.175 279.001C329.813 279.413 328.451 279.825 327.089 280.238ZM319.509 259.46C318.409 259.75 317.308 260.041 316.208 260.333C315.199 260.599 313.934 261.259 314.176 262.275C314.382 263.139 315.589 263.335 316.4 262.971C317.21 262.608 317.829 261.901 318.635 261.529C319.954 260.921 321.811 261.142 322.55 259.893C321.92 258.998 320.567 259.179 319.509 259.46ZM278.267 201.268C278.056 201.359 277.838 201.464 277.699 201.647C277.339 202.12 277.731 202.855 278.288 203.063C278.844 203.27 279.463 203.121 280.04 202.983C281.982 202.518 283.958 202.196 285.946 202.02C286.139 200.93 284.714 200.318 283.606 200.274C281.782 200.202 279.943 200.544 278.267 201.268ZM310.447 243.572C311.017 242.968 310.694 241.622 309.879 241.781C307.717 242.203 305.632 243.021 303.76 244.181C303.322 245.073 304.533 245.997 305.513 245.842C306.494 245.687 307.282 244.968 308.201 244.592C308.97 244.277 309.876 244.176 310.447 243.572ZM311.631 224.034C311.375 223.711 310.965 223.557 310.576 223.418C308.686 222.742 306.797 222.067 304.907 221.391C304.39 221.206 303.811 221.022 303.307 221.243C302.805 221.463 302.604 222.297 303.096 222.541C305.517 223.737 308.091 224.625 310.735 225.176C311.01 225.233 311.318 225.281 311.555 225.13C311.903 224.908 311.887 224.358 311.631 224.034ZM302.734 201.801C303.003 201.961 303.357 201.659 303.365 201.346C303.372 201.033 303.161 200.76 302.949 200.529C300.919 198.314 297.94 197.28 295.09 196.328C294.368 196.086 293.31 196.004 293.099 196.737C296.394 198.261 299.611 199.952 302.734 201.801ZM344.764 300.058C344.594 299.465 343.967 299.095 343.352 299.033C342.738 298.971 342.128 299.154 341.538 299.335C340.507 299.65 339.476 299.965 338.445 300.28C337.733 300.498 336.867 300.926 336.926 301.668C336.975 302.273 337.679 302.634 338.282 302.576C338.886 302.518 339.418 302.177 339.964 301.916C341.157 301.344 342.518 301.131 343.828 301.309C344.44 301.393 344.935 300.652 344.764 300.058ZM280.108 205.785C280.099 206.343 280.536 206.875 281.085 206.976C281.439 207.041 281.801 206.943 282.149 206.847C284.156 206.287 286.163 205.728 288.169 205.169C288.201 204.605 287.714 204.118 287.173 203.954C286.632 203.791 286.052 203.874 285.493 203.959C284.036 204.181 282.578 204.403 281.121 204.625C280.569 204.709 280.117 205.227 280.108 205.785ZM313.255 245.924C313.335 245.4 312.819 244.937 312.293 244.871C311.767 244.805 311.25 245.02 310.764 245.23C309.215 245.899 307.666 246.568 306.118 247.236C305.657 247.821 306.224 248.748 306.95 248.913C307.676 249.077 308.413 248.745 309.083 248.422C310.141 247.912 311.199 247.402 312.256 246.892C312.692 246.682 313.181 246.402 313.255 245.924ZM291.106 192.301C291.285 192.619 291.64 192.788 291.973 192.937C294.732 194.173 297.491 195.409 300.251 196.645C300.74 196.865 301.455 197.014 301.696 196.535C301.956 196.021 301.316 195.529 300.786 195.303C297.817 194.043 294.849 192.782 291.881 191.52C291.731 191.457 291.572 191.392 291.412 191.419C291.053 191.479 290.928 191.983 291.106 192.301ZM305.397 227.899C305.305 227.86 305.205 227.82 305.106 227.84C305.004 227.86 304.919 227.949 304.904 228.053C305.145 229.704 306.998 230.518 308.586 231.033C310.661 231.707 312.735 232.38 314.81 233.054C315.309 232.502 314.495 231.738 313.81 231.449C311.005 230.266 308.201 229.083 305.397 227.899ZM290.055 208.546C290.286 208.11 289.938 207.564 289.499 207.339C288.731 206.943 287.806 207.164 286.974 207.392C286.027 207.653 285.079 207.912 284.131 208.172C283.449 208.36 282.626 208.714 282.601 209.422C282.581 209.951 283.081 210.384 283.602 210.481C284.123 210.578 284.654 210.425 285.162 210.273C286.513 209.87 287.865 209.467 289.217 209.063C289.54 208.966 289.896 208.844 290.055 208.546ZM337.03 285.382C336.467 285.056 335.758 285.247 335.139 285.445C333.166 286.076 331.194 286.706 329.222 287.337C328.786 288.035 329.579 288.964 330.402 289.013C331.223 289.062 331.969 288.583 332.695 288.194C334.015 287.486 335.47 287.031 336.958 286.86C337.605 286.786 337.594 285.709 337.03 285.382ZM299.366 225.51C298.734 225.341 298.065 225.459 297.422 225.578C296.626 225.725 295.83 225.871 295.035 226.018C294.132 226.184 292.988 226.651 293.084 227.564C293.14 228.102 293.672 228.491 294.207 228.569C294.743 228.648 295.282 228.488 295.8 228.33C297.388 227.847 298.976 227.363 300.564 226.88C300.58 226.226 299.997 225.68 299.366 225.51ZM293.949 214.813C293.508 214.362 292.78 214.329 292.174 214.505C291.567 214.68 291.024 215.025 290.432 215.242C289.733 215.499 288.978 215.574 288.282 215.838C287.585 216.101 286.913 216.627 286.792 217.361C287.054 217.972 287.931 217.904 288.573 217.731C290.274 217.273 291.974 216.815 293.675 216.357C294.285 216.193 294.391 215.264 293.949 214.813ZM291.583 223.135C290.874 223.341 290.996 224.512 291.642 224.868C292.288 225.224 293.086 225.027 293.795 224.822C295.282 224.393 296.769 223.964 298.256 223.534C298.365 222.791 297.685 222.119 296.952 221.958C296.219 221.796 295.461 222.007 294.74 222.217C293.687 222.523 292.635 222.829 291.583 223.135ZM300.019 118.53C300.964 117.849 300.819 116.444 300.847 115.279C299.614 115.129 298.265 115.004 297.225 115.683C296.187 116.363 295.908 118.197 297.02 118.748C297.402 118.937 297.848 118.932 298.275 118.923C298.88 118.91 299.527 118.883 300.019 118.53ZM302.401 217.563C301.806 217.502 300.939 217.765 301.108 218.339C301.189 218.615 301.492 218.75 301.762 218.848C304.354 219.785 307.059 220.404 309.799 220.69C310.138 220.612 310.238 220.132 310.06 219.832C309.883 219.533 309.541 219.378 309.218 219.248C307.039 218.372 304.737 217.803 302.401 217.563ZM290.342 188.799C292.583 189.951 294.868 191.019 297.188 192C297.639 192.191 298.151 192.38 298.604 192.194C299.057 192.008 299.23 191.249 298.781 191.053C296.143 189.899 293.504 188.744 290.865 187.589C290.446 187.406 289.849 187.274 289.622 187.672C289.374 188.108 289.896 188.571 290.342 188.799ZM312.525 227.428C312.143 227.082 311.63 226.927 311.135 226.781C309.054 226.169 306.971 225.558 304.889 224.946C304.602 224.862 304.281 224.779 304.011 224.912C303.742 225.044 303.644 225.498 303.914 225.63C306.762 227.026 309.77 228.098 312.858 228.82C313.114 228.372 312.907 227.775 312.525 227.428ZM314.158 259.558C315.643 259.032 317.127 258.507 318.612 257.983C319.265 257.751 319.966 257.484 320.34 256.901C320.244 256.378 319.679 256.049 319.147 256.038C318.616 256.028 318.113 256.258 317.631 256.483C316.331 257.091 315.029 257.699 313.728 258.306C313.258 258.526 312.717 258.849 312.709 259.368C312.952 259.844 313.654 259.736 314.158 259.558ZM302.362 229.867C302.709 229.481 302.397 228.811 301.915 228.618C301.433 228.426 300.89 228.558 300.388 228.693C298.684 229.148 296.981 229.604 295.277 230.06C294.968 230.418 295.246 231.024 295.68 231.211C296.115 231.398 296.613 231.298 297.075 231.196C298.612 230.855 300.149 230.514 301.687 230.172C301.932 230.118 302.194 230.054 302.362 229.867ZM323.181 261.798C322.83 261.721 322.471 261.86 322.138 261.996C320.322 262.738 318.505 263.48 316.689 264.223C316.163 264.438 316.376 265.331 316.91 265.526C317.443 265.721 318.026 265.468 318.538 265.221C320.099 264.465 321.66 263.71 323.22 262.954C323.398 262.868 323.588 262.771 323.674 262.594C323.834 262.272 323.532 261.875 323.181 261.798ZM309.845 232.953C309.146 232.694 308.137 232.559 307.858 233.25C310.32 234.518 312.931 235.495 315.62 236.155C316.169 235.823 315.483 235.04 314.882 234.818C313.203 234.196 311.524 233.575 309.845 232.953ZM275.982 198.935C275.512 199.469 275.975 200.482 276.686 200.476C278.312 199.414 280.211 198.775 282.147 198.635C281.534 197.867 280.47 197.576 279.49 197.653C278.51 197.73 277.586 198.12 276.681 198.506C276.427 198.614 276.164 198.728 275.982 198.935ZM315.762 238.824C316.294 238.953 317.133 238.804 317 238.272C314.777 237.268 312.433 236.53 310.035 236.079C309.771 236.436 309.93 236.976 310.26 237.272C310.592 237.569 311.043 237.683 311.475 237.787C312.904 238.133 314.333 238.479 315.762 238.824ZM314.08 241.61C315.325 241.995 316.614 242.238 317.915 242.332C318.175 241.988 318.026 241.462 317.707 241.17C317.389 240.879 316.953 240.763 316.534 240.657C315.208 240.319 313.882 239.982 312.556 239.645C312.074 240.474 313.164 241.327 314.08 241.61ZM342.433 312.307C342.136 313.036 342.522 314.056 343.303 314.157C344.275 313.224 345.11 312.148 345.772 310.975C345.395 310.567 344.731 310.666 344.21 310.858C343.471 311.13 342.73 311.578 342.433 312.307ZM321.666 251.745C321.034 251.155 320.252 250.727 319.415 250.51C319.281 251.697 319.961 252.932 321.036 253.453C321.293 253.577 321.598 253.663 321.862 253.551C322.526 253.268 322.195 252.237 321.666 251.745ZM318.554 244.291C318.119 243.978 317.557 243.918 317.022 243.868C316.364 243.806 315.706 243.745 315.048 243.684C314.729 244.452 315.632 245.199 316.455 245.319C317.277 245.44 318.178 245.275 318.896 245.693C319.222 245.266 318.989 244.605 318.554 244.291ZM323.654 258.755C323.913 258.976 324.23 259.172 324.567 259.135C324.686 257.52 323.595 256.017 322.237 255.135C322.077 256.475 322.627 257.88 323.654 258.755ZM319.438 247.869C318.677 247.449 317.78 247.276 316.916 247.384C317.23 248.226 317.975 248.893 318.846 249.111C319.312 249.228 319.894 249.176 320.148 248.768C320.403 248.36 319.901 247.685 319.508 247.961M276.762 195.544C276.04 195.672 275.362 196.039 274.86 196.574C275.758 196.826 276.781 196.571 277.454 195.926C277.288 195.703 277.03 195.551 276.755 195.512" fill="black"/>
<path fill-rule="evenodd" clip-rule="evenodd" d="M261.264 267.389C268.633 260.311 278.976 261.309 286.211 269.076C292.502 275.834 291.006 284.761 283.862 292.248C281.167 295.043 275.756 296.898 271.841 296.444C268.526 296.115 263.364 293.672 260.299 291.42C258.88 290.377 257.582 288.228 256.357 284.963L256.177 284.475C254.002 278.445 255.471 272.072 260.398 268.073L260.628 267.889L260.68 267.818C260.723 267.765 260.772 267.715 260.828 267.668L260.918 267.599L261.019 267.534L261.228 267.429L261.264 267.389ZM274.074 291.703L271.846 294.087L272.091 294.107C274.376 294.273 276.611 293.915 278.644 293.052L278.757 293.002L278.599 292.992C277.195 292.892 275.711 292.463 274.169 291.747L274.074 291.703ZM267.572 287.226L267.363 287.035L267.143 287.249C266.279 288.09 265.401 288.953 264.503 289.843L263.485 290.853C263.774 291.062 264.073 291.267 264.385 291.467C265.795 292.385 267.317 293.082 268.892 293.535L269.23 293.628L270.859 291.912L272.079 290.622L271.999 290.574C270.467 289.633 268.961 288.478 267.572 287.226ZM278.203 287.286L275.546 290.128L275.68 290.186C277.747 291.053 279.585 291.217 281.167 290.579L281.334 290.507L281.174 290.326C280.374 289.432 279.515 288.546 278.575 287.64L278.203 287.286ZM262.197 281.287L261.726 281.751C261.047 282.411 260.362 283.068 259.67 283.719L258.583 284.736L258.674 284.954C259.41 286.65 260.436 288.127 261.772 289.419L261.82 289.464L261.972 289.31C262.94 288.329 263.939 287.334 264.98 286.316L265.79 285.527L265.57 285.305C264.358 284.073 263.322 282.866 262.45 281.648L262.197 281.287ZM282.542 282.643L279.643 285.745L279.672 285.772C280.785 286.834 281.801 287.875 282.745 288.927L283.032 289.25L283.04 289.24C284.03 287.896 283.859 285.706 282.671 282.936L282.542 282.643ZM272.398 282.222L272.183 282.424C271.192 283.354 270.187 284.309 269.162 285.294L268.873 285.572L269.143 285.81C270.56 287.049 271.918 288.089 273.275 288.928L273.531 289.083L275.351 287.151L276.604 285.817L276.19 285.449C275.439 284.786 274.627 284.091 273.606 283.233L272.398 282.222ZM287.887 276.925L283.876 281.216L284.006 281.468C284.227 281.903 284.443 282.344 284.656 282.793L284.973 283.472L285.266 284.125C285.566 284.757 285.772 285.387 285.883 286.007L285.9 286.113L286.019 285.897C287.643 282.921 288.308 279.859 287.901 277.013L287.887 276.925ZM279.064 276.878L278.858 276.605L278.126 277.219L276.088 278.904L275.723 279.211C275.349 279.527 275.012 279.817 274.701 280.092L274.34 280.417L273.967 280.762L274.807 281.463C275.745 282.249 276.561 282.948 277.325 283.622L278.051 284.27L280.382 281.773L281.491 280.58L281.483 280.563C280.785 279.334 279.957 278.078 279.064 276.878ZM266.647 277.13L266.472 276.958L266.417 277.017C265.735 277.731 265.048 278.439 264.354 279.142L263.662 279.837L263.806 280.058C264.649 281.321 265.692 282.554 266.908 283.749L267.216 284.048L267.271 284.1L267.366 284.009C268.069 283.339 268.79 282.656 269.534 281.957L270.734 280.833L270.569 280.694C269.218 279.544 267.914 278.358 266.647 277.13ZM259.233 272.577L259.167 272.687C257.517 275.462 257.007 278.911 257.774 282.196L257.842 282.477L257.877 282.611L258.223 282.289C258.946 281.607 259.664 280.92 260.377 280.226L261.102 279.513L261.033 279.386C259.845 277.177 259.224 274.933 259.233 272.628V272.577ZM272.341 270.5L271.481 271.488C270.504 272.6 269.514 273.7 268.509 274.788L267.918 275.424L268.065 275.567C269.235 276.697 270.447 277.799 271.712 278.881L272.3 279.38L272.862 278.862C273.223 278.535 273.609 278.197 274.046 277.826L274.763 277.225L276.447 275.838C276.751 275.586 277.023 275.361 277.275 275.147L277.522 274.938L277.402 274.798C276.824 274.127 276.28 273.551 275.828 273.129L275.696 273.006C274.778 272.178 273.774 271.42 272.656 270.7L272.341 270.5ZM284.502 270.38L284.412 270.537C283.482 272.114 282.2 273.591 280.457 275.198L280.311 275.331L280.364 275.402C281.125 276.472 281.847 277.592 282.531 278.76L282.779 279.19L284.73 277.084L287.197 274.406L287.139 274.266C286.572 272.918 285.73 271.652 284.609 270.489L284.502 270.38ZM261.418 271.579L261.409 271.669C261.208 273.795 261.624 275.886 262.6 277.943L262.625 277.994L262.885 277.734C263.46 277.151 264.032 276.564 264.6 275.973L265.033 275.519L264.857 275.339C263.858 274.309 262.877 273.246 261.908 272.143L261.418 271.579ZM262.387 269.227L262.239 269.299L262.277 269.345C263.597 270.919 264.942 272.411 266.333 273.841L266.476 273.987L267.057 273.364C268.075 272.259 269.081 271.143 270.071 270.013L270.554 269.458L270.502 269.43C270.257 269.297 270.006 269.163 269.748 269.03L269.357 268.829C267.059 267.701 265.363 267.826 262.619 269.117L262.387 269.227ZM276.752 265.205L275.906 266.254C275.334 266.957 274.758 267.655 274.176 268.349L273.768 268.831L273.872 268.897C275.411 269.889 276.722 270.966 277.799 272.16L278.044 272.438C278.283 272.715 278.518 272.996 278.75 273.281L279.017 273.613L279.054 273.58C280.77 271.98 281.983 270.522 282.815 268.956L282.838 268.908L282.618 268.734C280.393 266.985 278.763 265.946 277.038 265.307L276.752 265.205ZM273.349 264.603C271.169 264.588 269.184 264.977 267.351 265.778L267.247 265.824L267.429 265.848C267.831 265.907 268.224 266.009 268.612 266.155L268.805 266.232C269.843 266.689 270.797 267.147 271.693 267.623L271.992 267.785L272.578 267.092C273.176 266.381 273.767 265.666 274.353 264.946L274.563 264.685L274.308 264.655C274.095 264.634 273.883 264.619 273.669 264.61L273.349 264.603Z" fill="black"/>
<path fill-rule="evenodd" clip-rule="evenodd" d="M310.405 115.345C311.095 113.479 313.576 112.708 315.407 113.486C317.238 114.263 318.374 116.208 318.661 118.176C318.948 120.145 318.512 122.145 317.952 124.054C317.441 125.794 316.825 127.504 316.107 129.169C316.04 129.324 315.951 129.497 315.786 129.534C315.611 129.573 315.449 129.437 315.324 129.31C312.213 126.157 310.337 121.817 310.174 117.391C310.148 116.701 310.166 115.993 310.405 115.345ZM315.783 115.8C315.273 115.362 314.614 115.076 313.942 115.096C312.373 115.144 311.278 116.855 311.313 118.424C311.348 119.993 312.184 121.418 312.995 122.762C313.577 123.724 314.157 124.686 314.738 125.649C314.937 125.977 315.326 126.35 315.635 126.123C315.759 126.032 315.807 125.871 315.847 125.723C316.085 124.848 316.323 123.974 316.561 123.1C316.901 121.85 317.243 120.58 317.222 119.285C317.202 117.99 316.767 116.643 315.783 115.8Z" fill="black"/>
<path fill-rule="evenodd" clip-rule="evenodd" d="M314.757 120.823C314.375 120.931 313.958 120.91 313.588 120.766C312.87 120.486 312.374 119.718 312.416 118.948C312.457 118.179 313.033 117.468 313.777 117.267C314.904 116.963 316.173 118.001 316.098 119.166C316.049 119.922 315.486 120.617 314.757 120.823Z" fill="black"/>
</svg>
