<svg width="142" height="2162" viewBox="0 0 142 2162" fill="none" xmlns="http://www.w3.org/2000/svg">
<path d="M78.5 0V609M78.5 609C66.5 590.167 42.5 556.6 42.5 573L50.5 609C52.1666 610.5 52.2 613.5 39 613.5C22.5 613.5 26 611.5 23.5 609C21.5 607 12.3333 598.833 7.99997 595C4.16664 592.833 -2.20003 591.1 2.99997 601.5C8.19997 611.9 10.5 617.833 11 619.5L14.5 633.5C14.5 635.667 15.8 640 21 640C26.2 640 45.8333 640 55 640H78.5M78.5 609C90.3333 609.333 116 610 124 610C132 610 134.333 617 134.5 620.5L135.5 640H118H78.5M78.5 640C78.5 717.2 78.5 806.833 78.5 842V1016.5V1296M78.5 1296C78.5 1297.6 84.5 1297.67 87.5 1297.5V1308.5C98.3 1308.5 104.667 1322.17 106.5 1329H94C94 1320.2 86.6667 1318 83 1318H75C64.6 1318 62.6667 1326 63 1330C63 1335.6 73.3333 1338.67 78.5 1339.5L90 1342.5C97.2 1342.5 104 1351.5 106.5 1356L108 1360V1366C108 1376 95 1380.83 88.5 1382L88 1382.5V1393.5V1394H79M78.5 1296V1296.5V1297H70.2215V1308.5H70L64.5 1310.5C59.6667 1312.5 50 1318.2 50 1325C49.5 1327.83 49.3 1334.3 52.5 1337.5L57 1342.5L60.5 1345L64.5 1347L70.5 1349L76.5 1350.5L82 1352L88 1354C89.6667 1354.5 93.3 1356.6 94.5 1361C95.1667 1362.17 95.8 1365.2 93 1368C91.5 1369.5 87.9 1372.5 85.5 1372.5C81.6667 1372.83 73.8 1373.3 73 1372.5L70 1371.5C67.3333 1370.67 62 1367.5 62 1361.5H61.5H49V1362C49 1363.67 49.5 1367.7 51.5 1370.5L52.5 1372L56 1376L59 1378C60.8333 1379.33 65.5 1382 69.5 1382L70 1382.5V1394H79M79 1394L78.5 1551.5V1778V2040V2060M78.5 2060C95.3 2060 100.167 2068 100.5 2072C110.1 2062.4 123.167 2070.33 128.5 2075.5C134.9 2081.9 129.167 2091.17 125.5 2095C121.5 2099 114.833 2099.33 112 2099H93.5V2121.5M78.5 2060C71.8333 2060.83 58.5 2064.2 58.5 2071C57.1667 2069.83 53.5 2067.5 49.5 2067.5C49.5 2067.5 27.5 2067 27.5 2083C28.5 2088.33 33 2099 43 2099H47H65.5V2121.5M93.5 2121.5H65.5M93.5 2121.5H102.5V2122.5C102.667 2130 108.1 2147 128.5 2155L140 2161.5H18.5L31 2155C39.3333 2151 56 2138.7 56 2121.5H65.5" stroke="black"/>
</svg>
