<svg width="56" height="56" viewBox="0 0 56 56" fill="none" xmlns="http://www.w3.org/2000/svg">
<path d="M28 38C33.3552 38 37.7272 33.7905 37.9877 28.4999C38.0013 28.2241 37.7761 28 37.5 28H28.5C28.2239 28 28 27.7761 28 27.5V18.5C28 18.2239 27.7759 17.9987 27.5001 18.0123C22.2095 18.2728 18 22.6448 18 28C18 33.5228 22.4772 38 28 38Z" stroke="white" stroke-width="1.5"/>
<path d="M37.9846 25.4999C37.7367 21.48 34.52 18.2633 30.5001 18.0154C30.2245 17.9984 30 18.2239 30 18.5V25.5C30 25.7761 30.2239 26 30.5 26H37.5C37.7761 26 38.0016 25.7755 37.9846 25.4999Z" stroke="white" stroke-width="1.5"/>
</svg>
